<?xml version="1.0" encoding="UTF-8" standalone="no"?>
<svg width="583px" height="273px" viewBox="0 0 583 273" version="1.1" xmlns="http://www.w3.org/2000/svg" xmlns:xlink="http://www.w3.org/1999/xlink" xmlns:sketch="http://www.bohemiancoding.com/sketch/ns">
    <!-- Generator: Sketch 3.1 (8751) - http://www.bohemiancoding.com/sketch -->
    <title>keyboard</title>
    <desc>Created with Sketch.</desc>
    <defs></defs>
    <g id="Page-1" stroke="none" stroke-width="1" fill="none" fill-rule="evenodd" sketch:type="MSPage">
        <g id="Homepage" sketch:type="MSArtboardGroup" transform="translate(-391.000000, -2991.000000)">
            <g id="Collaboration" sketch:type="MSLayerGroup" transform="translate(-1.000000, 1724.000000)">
                <g id="Rectangle-175-+-tipkovnica-+-tipke" transform="translate(0.000000, 857.000000)" sketch:type="MSShapeGroup">
                    <g id="keyboard" transform="translate(392.000000, 410.000000)">
                        <path d="M578.995351,0 L3.49582099,0 C1.07278006,0 0,19.8237429 0,27.0530036 L0,259.185228 C0,266.414488 5.86948343,272.275391 13.1093287,272.275391 L569.381843,272.275391 C576.621688,272.275391 582.491172,266.414488 582.491172,259.185228 L582.491172,27.0530036 C582.491172,19.8237429 582.017488,0 578.995351,0" id="tipkovnica" fill="#EBEBEB"></path>
                        <path d="M258.388178,221.408184 L284.606835,221.408184 C287.020263,221.408184 288.976612,219.454696 288.976612,217.044797 L288.976612,191.737148 C288.976612,189.327686 287.020263,187.373761 284.606835,187.373761 L258.388178,187.373761 C255.974751,187.373761 254.018402,189.327686 254.018402,191.737148 L254.018402,217.044797 C254.018402,219.454696 255.974751,221.408184 258.388178,221.408184 L258.388178,221.408184 Z M460.27184,115.377864 L460.27184,140.685512 C460.27184,143.095411 462.228626,145.0489 464.641616,145.0489 L490.860274,145.0489 C493.273701,145.0489 495.23005,143.095411 495.23005,140.685512 L495.23005,115.377864 C495.23005,112.967965 493.273701,111.014476 490.860274,111.014476 L464.641616,111.014476 C462.228626,111.014476 460.27184,112.967965 460.27184,115.377864 L460.27184,115.377864 Z M431.868295,72.6171011 L405.649637,72.6171011 C403.23621,72.6171011 401.279861,74.5705898 401.279861,76.9800525 L401.279861,102.288137 C401.279861,104.6976 403.23621,106.651089 405.649637,106.651089 L431.868295,106.651089 C434.281722,106.651089 436.238071,104.6976 436.238071,102.288137 L436.238071,76.9800525 C436.238071,74.5705898 434.281722,72.6171011 431.868295,72.6171011 L431.868295,72.6171011 Z M382.052845,115.377864 L382.052845,140.685512 C382.052845,143.095411 384.009631,145.0489 386.422622,145.0489 L412.641279,145.0489 C415.054706,145.0489 417.011055,143.095411 417.011055,140.685512 L417.011055,115.377864 C417.011055,112.967965 415.054706,111.014476 412.641279,111.014476 L386.422622,111.014476 C384.009631,111.014476 382.052845,112.967965 382.052845,115.377864 L382.052845,115.377864 Z M420.943854,115.377864 L420.943854,140.685512 C420.943854,143.095411 422.90064,145.0489 425.31363,145.0489 L451.532288,145.0489 C453.945715,145.0489 455.902064,143.095411 455.902064,140.685512 L455.902064,115.377864 C455.902064,112.967965 453.945715,111.014476 451.532288,111.014476 L425.31363,111.014476 C422.90064,111.014476 420.943854,112.967965 420.943854,115.377864 L420.943854,115.377864 Z M377.683069,140.685512 L377.683069,115.377864 C377.683069,112.967965 375.72672,111.014476 373.313293,111.014476 L347.094636,111.014476 C344.681645,111.014476 342.724859,112.967965 342.724859,115.377864 L342.724859,140.685512 C342.724859,143.095411 344.681645,145.0489 347.094636,145.0489 L373.313293,145.0489 C375.72672,145.0489 377.683069,143.095411 377.683069,140.685512 L377.683069,140.685512 Z M298.153142,221.408184 L324.371799,221.408184 C326.785227,221.408184 328.741575,219.454696 328.741575,217.044797 L328.741575,191.737148 C328.741575,189.327686 326.785227,187.373761 324.371799,187.373761 L298.153142,187.373761 C295.740151,187.373761 293.783366,189.327686 293.783366,191.737148 L293.783366,217.044797 C293.783366,219.454696 295.740151,221.408184 298.153142,221.408184 L298.153142,221.408184 Z M309.077582,179.083324 L309.077582,153.775675 C309.077582,151.366213 307.121234,149.412288 304.707806,149.412288 L278.489149,149.412288 C276.075721,149.412288 274.119373,151.366213 274.119373,153.775675 L274.119373,179.083324 C274.119373,181.493223 276.075721,183.446712 278.489149,183.446712 L304.707806,183.446712 C307.121234,183.446712 309.077582,181.493223 309.077582,179.083324 L309.077582,179.083324 Z M348.405568,179.083324 L348.405568,153.775675 C348.405568,151.366213 346.44922,149.412288 344.035792,149.412288 L317.817135,149.412288 C315.404144,149.412288 313.447359,151.366213 313.447359,153.775675 L313.447359,179.083324 C313.447359,181.493223 315.404144,183.446712 317.817135,183.446712 L344.035792,183.446712 C346.44922,183.446712 348.405568,181.493223 348.405568,179.083324 L348.405568,179.083324 Z M471.196281,72.6171011 L444.977623,72.6171011 C442.564633,72.6171011 440.607847,74.5705898 440.607847,76.9800525 L440.607847,102.288137 C440.607847,104.6976 442.564633,106.651089 444.977623,106.651089 L471.196281,106.651089 C473.609708,106.651089 475.566057,104.6976 475.566057,102.288137 L475.566057,76.9800525 C475.566057,74.5705898 473.609708,72.6171011 471.196281,72.6171011 L471.196281,72.6171011 Z M455.028109,221.408184 L481.246766,221.408184 C483.659756,221.408184 485.616542,219.454696 485.616542,217.044797 L485.616542,191.737148 C485.616542,189.327686 483.659756,187.373761 481.246766,187.373761 L455.028109,187.373761 C452.614681,187.373761 450.658332,189.327686 450.658332,191.737148 L450.658332,217.044797 C450.658332,219.454696 452.614681,221.408184 455.028109,221.408184 L455.028109,221.408184 Z M505.280535,179.083324 L505.280535,153.775675 C505.280535,151.366213 503.323749,149.412288 500.910759,149.412288 L474.692102,149.412288 C472.279111,149.412288 470.322325,151.366213 470.322325,153.775675 L470.322325,179.083324 C470.322325,181.493223 472.279111,183.446712 474.692102,183.446712 L500.910759,183.446712 C503.323749,183.446712 505.280535,181.493223 505.280535,179.083324 L505.280535,179.083324 Z M465.952549,179.083324 L465.952549,153.775675 C465.952549,151.366213 463.995763,149.412288 461.582773,149.412288 L435.364115,149.412288 C432.950688,149.412288 430.994339,151.366213 430.994339,153.775675 L430.994339,179.083324 C430.994339,181.493223 432.950688,183.446712 435.364115,183.446712 L461.582773,183.446712 C463.995763,183.446712 465.952549,181.493223 465.952549,179.083324 L465.952549,179.083324 Z M534.995014,140.685512 L534.995014,115.377864 C534.995014,112.967965 533.038228,111.014476 530.625237,111.014476 L504.40658,111.014476 C501.99359,111.014476 500.036804,112.967965 500.036804,115.377864 L500.036804,140.685512 C500.036804,143.095411 501.99359,145.0489 504.40658,145.0489 L530.625237,145.0489 C533.038228,145.0489 534.995014,143.095411 534.995014,140.685512 L534.995014,140.685512 Z M416.1371,221.408184 L442.355757,221.408184 C444.769185,221.408184 446.725534,219.454696 446.725534,217.044797 L446.725534,191.737148 C446.725534,189.327686 444.769185,187.373761 442.355757,187.373761 L416.1371,187.373761 C413.72411,187.373761 411.767324,189.327686 411.767324,191.737148 L411.767324,217.044797 C411.767324,219.454696 413.72411,221.408184 416.1371,221.408184 L416.1371,221.408184 Z M392.977286,72.6171011 L366.758629,72.6171011 C364.345638,72.6171011 362.388852,74.5705898 362.388852,76.9800525 L362.388852,102.288137 C362.388852,104.6976 364.345638,106.651089 366.758629,106.651089 L392.977286,106.651089 C395.390713,106.651089 397.347062,104.6976 397.347062,102.288137 L397.347062,76.9800525 C397.347062,74.5705898 395.390713,72.6171011 392.977286,72.6171011 L392.977286,72.6171011 Z M376.809114,221.408184 L403.027771,221.408184 C405.441199,221.408184 407.397548,219.454696 407.397548,217.044797 L407.397548,191.737148 C407.397548,189.327686 405.441199,187.373761 403.027771,187.373761 L376.809114,187.373761 C374.395687,187.373761 372.439338,189.327686 372.439338,191.737148 L372.439338,217.044797 C372.439338,219.454696 374.395687,221.408184 376.809114,221.408184 L376.809114,221.408184 Z M357.145121,183.446712 L383.363778,183.446712 C385.777206,183.446712 387.733555,181.493223 387.733555,179.083324 L387.733555,153.775675 C387.733555,151.366213 385.777206,149.412288 383.363778,149.412288 L357.145121,149.412288 C354.731694,149.412288 352.775345,151.366213 352.775345,153.775675 L352.775345,179.083324 C352.775345,181.493223 354.731694,183.446712 357.145121,183.446712 L357.145121,183.446712 Z M427.061541,179.083324 L427.061541,153.775675 C427.061541,151.366213 425.105192,149.412288 422.691764,149.412288 L396.473107,149.412288 C394.05968,149.412288 392.103331,151.366213 392.103331,153.775675 L392.103331,179.083324 C392.103331,181.493223 394.05968,183.446712 396.473107,183.446712 L422.691764,183.446712 C425.105192,183.446712 427.061541,181.493223 427.061541,179.083324 L427.061541,179.083324 Z M269.312619,179.083324 L269.312619,153.775675 C269.312619,151.366213 267.35627,149.412288 264.942842,149.412288 L238.724185,149.412288 C236.310758,149.412288 234.354409,151.366213 234.354409,153.775675 L234.354409,179.083324 C234.354409,181.493223 236.310758,183.446712 238.724185,183.446712 L264.942842,183.446712 C267.35627,183.446712 269.312619,181.493223 269.312619,179.083324 L269.312619,179.083324 Z M181.043139,140.685512 L181.043139,115.377864 C181.043139,112.967965 179.08679,111.014476 176.673363,111.014476 L150.454705,111.014476 C148.041278,111.014476 146.084929,112.967965 146.084929,115.377864 L146.084929,140.685512 C146.084929,143.095411 148.041278,145.0489 150.454705,145.0489 L176.673363,145.0489 C179.08679,145.0489 181.043139,143.095411 181.043139,140.685512 L181.043139,140.685512 Z M101.076234,221.408184 L127.294891,221.408184 C129.708319,221.408184 131.664667,219.454696 131.664667,217.044797 L131.664667,191.737148 C131.664667,189.327686 129.708319,187.373761 127.294891,187.373761 L101.076234,187.373761 C98.6628063,187.373761 96.7064575,189.327686 96.7064575,191.737148 L96.7064575,217.044797 C96.7064575,219.454696 98.6628063,221.408184 101.076234,221.408184 L101.076234,221.408184 Z M151.765638,179.083324 L151.765638,153.775675 C151.765638,151.366213 149.809289,149.412288 147.395862,149.412288 L121.177204,149.412288 C118.763777,149.412288 116.807428,151.366213 116.807428,153.775675 L116.807428,179.083324 C116.807428,181.493223 118.763777,183.446712 121.177204,183.446712 L147.395862,183.446712 C149.809289,183.446712 151.765638,181.493223 151.765638,179.083324 L151.765638,179.083324 Z M215.564371,145.0489 C217.977798,145.0489 219.934147,143.095411 219.934147,140.685512 L219.934147,115.377864 C219.934147,112.967965 217.977798,111.014476 215.564371,111.014476 L189.345714,111.014476 C186.932286,111.014476 184.975937,112.967965 184.975937,115.377864 L184.975937,140.685512 C184.975937,143.095411 186.932286,145.0489 189.345714,145.0489 L215.564371,145.0489 L215.564371,145.0489 Z M160.50519,183.446712 L186.723848,183.446712 C189.137275,183.446712 191.093624,181.493223 191.093624,179.083324 L191.093624,153.775675 C191.093624,151.366213 189.137275,149.412288 186.723848,149.412288 L160.50519,149.412288 C158.0922,149.412288 156.135414,151.366213 156.135414,153.775675 L156.135414,179.083324 C156.135414,181.493223 158.0922,183.446712 160.50519,183.446712 L160.50519,183.446712 Z M111.126719,145.0489 L137.345376,145.0489 C139.758804,145.0489 141.715153,143.095411 141.715153,140.685512 L141.715153,115.377864 C141.715153,112.967965 139.758804,111.014476 137.345376,111.014476 L111.126719,111.014476 C108.713292,111.014476 106.756943,112.967965 106.756943,115.377864 L106.756943,140.685512 C106.756943,143.095411 108.713292,145.0489 111.126719,145.0489 L111.126719,145.0489 Z M501.784714,67.8169384 L529.314304,67.8169384 C531.727295,67.8169384 533.684081,65.8634497 533.684081,63.453987 L533.684081,50.363824 C533.684081,47.9534887 531.727295,46 529.314304,46 L501.784714,46 C499.371287,46 497.414938,47.9534887 497.414938,50.363824 L497.414938,63.453987 C497.414938,65.8634497 499.371287,67.8169384 501.784714,67.8169384 L501.784714,67.8169384 Z M542.423633,67.8169384 L569.953223,67.8169384 C572.366214,67.8169384 574.323,65.8634497 574.323,63.453987 L574.323,50.363824 C574.323,47.9534887 572.366214,46 569.953223,46 L542.423633,46 C540.010643,46 538.053857,47.9534887 538.053857,50.363824 L538.053857,63.453987 C538.053857,65.8634497 540.010643,67.8169384 542.423633,67.8169384 L542.423633,67.8169384 Z M81.4122407,183.446712 L107.630898,183.446712 C110.044326,183.446712 112.000674,181.493223 112.000674,179.083324 L112.000674,153.775675 C112.000674,151.366213 110.044326,149.412288 107.630898,149.412288 L81.4122407,149.412288 C78.9988133,149.412288 77.0424645,151.366213 77.0424645,153.775675 L77.0424645,179.083324 C77.0424645,181.493223 78.9988133,183.446712 81.4122407,183.446712 L81.4122407,183.446712 Z M180.169184,221.408184 L206.387841,221.408184 C208.801268,221.408184 210.757617,219.454696 210.757617,217.044797 L210.757617,191.737148 C210.757617,189.327686 208.801268,187.373761 206.387841,187.373761 L180.169184,187.373761 C177.755756,187.373761 175.799407,189.327686 175.799407,191.737148 L175.799407,217.044797 C175.799407,219.454696 177.755756,221.408184 180.169184,221.408184 L180.169184,221.408184 Z M303.396873,115.377864 L303.396873,140.685512 C303.396873,143.095411 305.353222,145.0489 307.76665,145.0489 L333.985307,145.0489 C336.398734,145.0489 338.355083,143.095411 338.355083,140.685512 L338.355083,115.377864 C338.355083,112.967965 336.398734,111.014476 333.985307,111.014476 L307.76665,111.014476 C305.353222,111.014476 303.396873,112.967965 303.396873,115.377864 L303.396873,115.377864 Z M353.6493,106.651089 C356.06229,106.651089 358.019076,104.6976 358.019076,102.288137 L358.019076,76.9800525 C358.019076,74.5705898 356.06229,72.6171011 353.6493,72.6171011 L327.430643,72.6171011 C325.017652,72.6171011 323.060866,74.5705898 323.060866,76.9800525 L323.060866,102.288137 C323.060866,104.6976 325.017652,106.651089 327.430643,106.651089 L353.6493,106.651089 L353.6493,106.651089 Z M314.321314,72.6171011 L288.102656,72.6171011 C285.689666,72.6171011 283.73288,74.5705898 283.73288,76.9800525 L283.73288,102.288137 C283.73288,104.6976 285.689666,106.651089 288.102656,106.651089 L314.321314,106.651089 C316.734741,106.651089 318.69109,104.6976 318.69109,102.288137 L318.69109,76.9800525 C318.69109,74.5705898 316.734741,72.6171011 314.321314,72.6171011 L314.321314,72.6171011 Z M510.961244,72.6171011 L484.742587,72.6171011 C482.329159,72.6171011 480.372811,74.5705898 480.372811,76.9800525 L480.372811,102.288137 C480.372811,104.6976 482.329159,106.651089 484.742587,106.651089 L510.961244,106.651089 C513.374235,106.651089 515.331021,104.6976 515.331021,102.288137 L515.331021,76.9800525 C515.331021,74.5705898 513.374235,72.6171011 510.961244,72.6171011 L510.961244,72.6171011 Z M264.068887,115.377864 L264.068887,140.685512 C264.068887,143.095411 266.025236,145.0489 268.438663,145.0489 L294.657321,145.0489 C297.070748,145.0489 299.027097,143.095411 299.027097,140.685512 L299.027097,115.377864 C299.027097,112.967965 297.070748,111.014476 294.657321,111.014476 L268.438663,111.014476 C266.025236,111.014476 264.068887,112.967965 264.068887,115.377864 L264.068887,115.377864 Z M219.060192,221.408184 L245.278849,221.408184 C247.692277,221.408184 249.648626,219.454696 249.648626,217.044797 L249.648626,191.737148 C249.648626,189.327686 247.692277,187.373761 245.278849,187.373761 L219.060192,187.373761 C216.646765,187.373761 214.690416,189.327686 214.690416,191.737148 L214.690416,217.044797 C214.690416,219.454696 216.646765,221.408184 219.060192,221.408184 L219.060192,221.408184 Z M229.984633,179.083324 L229.984633,153.775675 C229.984633,151.366213 228.028284,149.412288 225.614856,149.412288 L199.396199,149.412288 C196.982772,149.412288 195.026423,151.366213 195.026423,153.775675 L195.026423,179.083324 C195.026423,181.493223 196.982772,183.446712 199.396199,183.446712 L225.614856,183.446712 C228.028284,183.446712 229.984633,181.493223 229.984633,179.083324 L229.984633,179.083324 Z M254.892357,145.0489 C257.305785,145.0489 259.262133,143.095411 259.262133,140.685512 L259.262133,115.377864 C259.262133,112.967965 257.305785,111.014476 254.892357,111.014476 L228.6737,111.014476 C226.260272,111.014476 224.303923,112.967965 224.303923,115.377864 L224.303923,140.685512 C224.303923,143.095411 226.260272,145.0489 228.6737,145.0489 L254.892357,145.0489 L254.892357,145.0489 Z M101.950189,140.685512 L101.950189,115.377864 C101.950189,112.967965 99.9938402,111.014476 97.5804128,111.014476 L71.3617554,111.014476 C68.948328,111.014476 66.9919791,112.967965 66.9919791,115.377864 L66.9919791,140.685512 C66.9919791,143.095411 68.948328,145.0489 71.3617554,145.0489 L97.5804128,145.0489 C99.9938402,145.0489 101.950189,143.095411 101.950189,140.685512 L101.950189,140.685512 Z M167.059855,187.373761 L140.841197,187.373761 C138.42777,187.373761 136.471421,189.327686 136.471421,191.737148 L136.471421,217.044797 C136.471421,219.454696 138.42777,221.408184 140.841197,221.408184 L167.059855,221.408184 C169.473282,221.408184 171.429631,219.454696 171.429631,217.044797 L171.429631,191.737148 C171.429631,189.327686 169.473282,187.373761 167.059855,187.373761 L167.059855,187.373761 Z M166.622877,225.771572 L130.353734,225.771572 C127.940307,225.771572 125.983958,227.725061 125.983958,230.13496 L125.983958,260.242335 C125.983958,262.652234 127.940307,264.605722 130.353734,264.605722 L166.622877,264.605722 C169.036305,264.605722 170.992653,262.652234 170.992653,260.242335 L170.992653,230.13496 C170.992653,227.725061 169.036305,225.771572 166.622877,225.771572 L166.622877,225.771572 Z M117.244406,225.771572 L91.0257484,225.771572 C88.612321,225.771572 86.6559722,227.725061 86.6559722,230.13496 L86.6559722,260.242335 C86.6559722,262.652234 88.612321,264.605722 91.0257484,264.605722 L117.244406,264.605722 C119.657833,264.605722 121.614182,262.652234 121.614182,260.242335 L121.614182,230.13496 C121.614182,227.725061 119.657833,225.771572 117.244406,225.771572 L117.244406,225.771572 Z M363.699785,187.373761 L337.481128,187.373761 C335.068137,187.373761 333.111352,189.327686 333.111352,191.737148 L333.111352,217.044797 C333.111352,219.454696 335.068137,221.408184 337.481128,221.408184 L363.699785,221.408184 C366.113213,221.408184 368.069562,219.454696 368.069562,217.044797 L368.069562,191.737148 C368.069562,189.327686 366.113213,187.373761 363.699785,187.373761 L363.699785,187.373761 Z M12.3697762,145.0489 L58.2524267,145.0489 C60.6658541,145.0489 62.6222029,143.095411 62.6222029,140.685512 L62.6222029,115.377864 C62.6222029,112.967965 60.6658541,111.014476 58.2524267,111.014476 L12.3697762,111.014476 C9.95634882,111.014476 8,112.967965 8,115.377864 L8,140.685512 C8,143.095411 9.95634882,145.0489 12.3697762,145.0489 L12.3697762,145.0489 Z M12.3697762,183.446712 L68.302912,183.446712 C70.7163394,183.446712 72.6726882,181.493223 72.6726882,179.083324 L72.6726882,153.775675 C72.6726882,151.366213 70.7163394,149.412288 68.302912,149.412288 L12.3697762,149.412288 C9.95634882,149.412288 8,151.366213 8,153.775675 L8,179.083324 C8,181.493223 9.95634882,183.446712 12.3697762,183.446712 L12.3697762,183.446712 Z M77.9164197,225.771572 L51.6977623,225.771572 C49.2843349,225.771572 47.3279861,227.725061 47.3279861,230.13496 L47.3279861,260.242335 C47.3279861,262.652234 49.2843349,264.605722 51.6977623,264.605722 L77.9164197,264.605722 C80.3298471,264.605722 82.2861959,262.652234 82.2861959,260.242335 L82.2861959,230.13496 C82.2861959,227.725061 80.3298471,225.771572 77.9164197,225.771572 L77.9164197,225.771572 Z M12.3697762,221.408184 L87.966905,221.408184 C90.3803325,221.408184 92.3366813,219.454696 92.3366813,217.044797 L92.3366813,191.737148 C92.3366813,189.327686 90.3803325,187.373761 87.966905,187.373761 L12.3697762,187.373761 C9.95634882,187.373761 8,189.327686 8,191.737148 L8,217.044797 C8,219.454696 9.95634882,221.408184 12.3697762,221.408184 L12.3697762,221.408184 Z M38.5884336,225.771572 L12.3697762,225.771572 C9.95634882,225.771572 8,227.725061 8,230.13496 L8,260.242335 C8,262.652234 9.95634882,264.605722 12.3697762,264.605722 L38.5884336,264.605722 C41.001861,264.605722 42.9582099,262.652234 42.9582099,260.242335 L42.9582099,230.13496 C42.9582099,227.725061 41.001861,225.771572 38.5884336,225.771572 L38.5884336,225.771572 Z M363.699785,225.771572 L180.169184,225.771572 C177.755756,225.771572 175.799407,227.725061 175.799407,230.13496 L175.799407,260.242335 C175.799407,262.652234 177.755756,264.605722 180.169184,264.605722 L363.699785,264.605722 C366.113213,264.605722 368.069562,262.652234 368.069562,260.242335 L368.069562,230.13496 C368.069562,227.725061 366.113213,225.771572 363.699785,225.771572 L363.699785,225.771572 Z M570.390201,186.937422 L494.356095,186.937422 C491.943104,186.937422 489.986318,188.891347 489.986318,191.300809 L489.986318,216.608458 C489.986318,219.017921 491.943104,220.971846 494.356095,220.971846 L570.390201,220.971846 C572.803628,220.971846 574.759977,219.017921 574.759977,216.608458 L574.759977,191.300809 C574.759977,188.891347 572.803628,186.937422 570.390201,186.937422 L570.390201,186.937422 Z M460.708818,67.8169384 L488.238408,67.8169384 C490.651835,67.8169384 492.608184,65.8634497 492.608184,63.453987 L492.608184,50.363824 C492.608184,47.9534887 490.651835,46 488.238408,46 L460.708818,46 C458.295827,46 456.339041,47.9534887 456.339041,50.363824 L456.339041,63.453987 C456.339041,65.8634497 458.295827,67.8169384 460.708818,67.8169384 L460.708818,67.8169384 Z M570.390201,149.412288 L514.457065,149.412288 C512.043638,149.412288 510.087289,151.366213 510.087289,153.775675 L510.087289,179.083324 C510.087289,181.493223 512.043638,183.446712 514.457065,183.446712 L570.390201,183.446712 C572.803628,183.446712 574.759977,181.493223 574.759977,179.083324 L574.759977,153.775675 C574.759977,151.366213 572.803628,149.412288 570.390201,149.412288 L570.390201,149.412288 Z M570.390201,72.6171011 L524.070573,72.6171011 C521.657146,72.6171011 519.700797,74.5705898 519.700797,76.9800525 L519.700797,102.288137 C519.700797,104.6976 521.657146,106.651089 524.070573,106.651089 L570.390201,106.651089 C572.803628,106.651089 574.759977,104.6976 574.759977,102.288137 L574.759977,76.9800525 C574.759977,74.5705898 572.803628,72.6171011 570.390201,72.6171011 L570.390201,72.6171011 Z M569.953223,145.0489 C572.366214,145.0489 574.323,143.095411 574.323,140.685512 L574.323,115.377864 C574.323,112.967965 572.366214,111.014476 569.953223,111.014476 L543.734566,111.014476 C541.321576,111.014476 539.36479,112.967965 539.36479,115.377864 L539.36479,140.685512 C539.36479,143.095411 541.321576,145.0489 543.734566,145.0489 L569.953223,145.0489 L569.953223,145.0489 Z M451.969265,225.771572 L425.750608,225.771572 C423.33718,225.771572 421.380832,227.725061 421.380832,230.13496 L421.380832,260.242335 C421.380832,262.652234 423.33718,264.605722 425.750608,264.605722 L451.969265,264.605722 C454.382693,264.605722 456.339041,262.652234 456.339041,260.242335 L456.339041,230.13496 C456.339041,227.725061 454.382693,225.771572 451.969265,225.771572 L451.969265,225.771572 Z M491.734229,244.534139 L465.515571,244.534139 C463.102581,244.534139 461.145795,246.487628 461.145795,248.897527 L461.145795,259.805996 C461.145795,262.215895 463.102581,264.169384 465.515571,264.169384 L491.734229,264.169384 C494.147219,264.169384 496.104005,262.215895 496.104005,259.805996 L496.104005,248.897527 C496.104005,246.487628 494.147219,244.534139 491.734229,244.534139 L491.734229,244.534139 Z M530.625237,225.771572 L504.843558,225.771572 C502.430567,225.771572 500.473781,227.725061 500.473781,230.13496 L500.473781,244.534139 L534.558036,244.534139 L534.558036,244.970478 L500.473781,244.970478 L500.473781,260.242335 C500.473781,262.652234 502.430567,264.605722 504.843558,264.605722 L530.625237,264.605722 C533.038228,264.605722 534.995014,262.652234 534.995014,260.242335 L534.995014,230.13496 C534.995014,227.725061 533.038228,225.771572 530.625237,225.771572 L530.625237,225.771572 Z M569.953223,244.534139 L543.734566,244.534139 C541.321576,244.534139 539.36479,246.487628 539.36479,248.897527 L539.36479,259.805996 C539.36479,262.215895 541.321576,264.169384 543.734566,264.169384 L569.953223,264.169384 C572.366214,264.169384 574.323,262.215895 574.323,259.805996 L574.323,248.897527 C574.323,246.487628 572.366214,244.534139 569.953223,244.534139 L569.953223,244.534139 Z M412.641279,225.771572 L376.809114,225.771572 C374.395687,225.771572 372.439338,227.725061 372.439338,230.13496 L372.439338,260.242335 C372.439338,262.652234 374.395687,264.605722 376.809114,264.605722 L412.641279,264.605722 C415.054706,264.605722 417.011055,262.652234 417.011055,260.242335 L417.011055,230.13496 C417.011055,227.725061 415.054706,225.771572 412.641279,225.771572 L412.641279,225.771572 Z M244.404894,76.9800525 L244.404894,102.288137 C244.404894,104.6976 246.361243,106.651089 248.77467,106.651089 L274.993328,106.651089 C277.406755,106.651089 279.363104,104.6976 279.363104,102.288137 L279.363104,76.9800525 C279.363104,74.5705898 277.406755,72.6171011 274.993328,72.6171011 L248.77467,72.6171011 C246.361243,72.6171011 244.404894,74.5705898 244.404894,76.9800525 L244.404894,76.9800525 Z M216.438326,67.8169384 L243.967917,67.8169384 C246.381344,67.8169384 248.337693,65.8634497 248.337693,63.453987 L248.337693,50.363824 C248.337693,47.9534887 246.381344,46 243.967917,46 L216.438326,46 C214.024899,46 212.06855,47.9534887 212.06855,50.363824 L212.06855,63.453987 C212.06855,65.8634497 214.024899,67.8169384 216.438326,67.8169384 L216.438326,67.8169384 Z M12.3697762,106.651089 L38.5884336,106.651089 C41.001861,106.651089 42.9582099,104.6976 42.9582099,102.288137 L42.9582099,76.9800525 C42.9582099,74.5705898 41.001861,72.6171011 38.5884336,72.6171011 L12.3697762,72.6171011 C9.95634882,72.6171011 8,74.5705898 8,76.9800525 L8,102.288137 C8,104.6976 9.95634882,106.651089 12.3697762,106.651089 L12.3697762,106.651089 Z M204.63993,76.9800525 L204.63993,102.288137 C204.63993,104.6976 206.596279,106.651089 209.009707,106.651089 L235.228364,106.651089 C237.641791,106.651089 239.59814,104.6976 239.59814,102.288137 L239.59814,76.9800525 C239.59814,74.5705898 237.641791,72.6171011 235.228364,72.6171011 L209.009707,72.6171011 C206.596279,72.6171011 204.63993,74.5705898 204.63993,76.9800525 L204.63993,76.9800525 Z M298.153142,67.8169384 L325.682732,67.8169384 C328.096159,67.8169384 330.052508,65.8634497 330.052508,63.453987 L330.052508,50.363824 C330.052508,47.9534887 328.096159,46 325.682732,46 L298.153142,46 C295.740151,46 293.783366,47.9534887 293.783366,50.363824 L293.783366,63.453987 C293.783366,65.8634497 295.740151,67.8169384 298.153142,67.8169384 L298.153142,67.8169384 Z M378.994002,67.8169384 L406.523592,67.8169384 C408.93702,67.8169384 410.893369,65.8634497 410.893369,63.453987 L410.893369,50.363824 C410.893369,47.9534887 408.93702,46 406.523592,46 L378.994002,46 C376.580575,46 374.624226,47.9534887 374.624226,50.363824 L374.624226,63.453987 C374.624226,65.8634497 376.580575,67.8169384 378.994002,67.8169384 L378.994002,67.8169384 Z M175.799407,67.8169384 L203.328998,67.8169384 C205.742425,67.8169384 207.698774,65.8634497 207.698774,63.453987 L207.698774,50.363824 C207.698774,47.9534887 205.742425,46 203.328998,46 L175.799407,46 C173.38598,46 171.429631,47.9534887 171.429631,50.363824 L171.429631,63.453987 C171.429631,65.8634497 173.38598,67.8169384 175.799407,67.8169384 L175.799407,67.8169384 Z M420.069899,67.8169384 L447.599489,67.8169384 C450.012916,67.8169384 451.969265,65.8634497 451.969265,63.453987 L451.969265,50.363824 C451.969265,47.9534887 450.012916,46 447.599489,46 L420.069899,46 C417.656908,46 415.700122,47.9534887 415.700122,50.363824 L415.700122,63.453987 C415.700122,65.8634497 417.656908,67.8169384 420.069899,67.8169384 L420.069899,67.8169384 Z M338.355083,67.8169384 L365.884673,67.8169384 C368.298101,67.8169384 370.25445,65.8634497 370.25445,63.453987 L370.25445,50.363824 C370.25445,47.9534887 368.298101,46 365.884673,46 L338.355083,46 C335.941656,46 333.985307,47.9534887 333.985307,50.363824 L333.985307,63.453987 C333.985307,65.8634497 335.941656,67.8169384 338.355083,67.8169384 L338.355083,67.8169384 Z M257.514223,67.8169384 L285.043813,67.8169384 C287.457241,67.8169384 289.413589,65.8634497 289.413589,63.453987 L289.413589,50.363824 C289.413589,47.9534887 287.457241,46 285.043813,46 L257.514223,46 C255.100795,46 253.144447,47.9534887 253.144447,50.363824 L253.144447,63.453987 C253.144447,65.8634497 255.100795,67.8169384 257.514223,67.8169384 L257.514223,67.8169384 Z M51.6977623,106.651089 L77.9164197,106.651089 C80.3298471,106.651089 82.2861959,104.6976 82.2861959,102.288137 L82.2861959,76.9800525 C82.2861959,74.5705898 80.3298471,72.6171011 77.9164197,72.6171011 L51.6977623,72.6171011 C49.2843349,72.6171011 47.3279861,74.5705898 47.3279861,76.9800525 L47.3279861,102.288137 C47.3279861,104.6976 49.2843349,106.651089 51.6977623,106.651089 L51.6977623,106.651089 Z M91.462726,106.651089 L117.681383,106.651089 C120.094811,106.651089 122.05116,104.6976 122.05116,102.288137 L122.05116,76.9800525 C122.05116,74.5705898 120.094811,72.6171011 117.681383,72.6171011 L91.462726,72.6171011 C89.0492986,72.6171011 87.0929498,74.5705898 87.0929498,76.9800525 L87.0929498,102.288137 C87.0929498,104.6976 89.0492986,106.651089 91.462726,106.651089 L91.462726,106.651089 Z M53.0086952,67.8169384 L80.5382855,67.8169384 C82.9517129,67.8169384 84.9080617,65.8634497 84.9080617,63.453987 L84.9080617,50.363824 C84.9080617,47.9534887 82.9517129,46 80.5382855,46 L53.0086952,46 C50.5952678,46 48.638919,47.9534887 48.638919,50.363824 L48.638919,63.453987 C48.638919,65.8634497 50.5952678,67.8169384 53.0086952,67.8169384 L53.0086952,67.8169384 Z M165.311944,76.9800525 L165.311944,102.288137 C165.311944,104.6976 167.268293,106.651089 169.681721,106.651089 L195.900378,106.651089 C198.313805,106.651089 200.270154,104.6976 200.270154,102.288137 L200.270154,76.9800525 C200.270154,74.5705898 198.313805,72.6171011 195.900378,72.6171011 L169.681721,72.6171011 C167.268293,72.6171011 165.311944,74.5705898 165.311944,76.9800525 L165.311944,76.9800525 Z M12.3697762,67.8169384 L39.8993665,67.8169384 C42.3127939,67.8169384 44.2691427,65.8634497 44.2691427,63.453987 L44.2691427,50.363824 C44.2691427,47.9534887 42.3127939,46 39.8993665,46 L12.3697762,46 C9.95634882,46 8,47.9534887 8,50.363824 L8,63.453987 C8,65.8634497 9.95634882,67.8169384 12.3697762,67.8169384 L12.3697762,67.8169384 Z M134.723511,67.8169384 L162.253101,67.8169384 C164.666528,67.8169384 166.622877,65.8634497 166.622877,63.453987 L166.622877,50.363824 C166.622877,47.9534887 164.666528,46 162.253101,46 L134.723511,46 C132.310083,46 130.353734,47.9534887 130.353734,50.363824 L130.353734,63.453987 C130.353734,65.8634497 132.310083,67.8169384 134.723511,67.8169384 L134.723511,67.8169384 Z M130.790712,106.651089 L157.00937,106.651089 C159.422797,106.651089 161.379146,104.6976 161.379146,102.288137 L161.379146,76.9800525 C161.379146,74.5705898 159.422797,72.6171011 157.00937,72.6171011 L130.790712,72.6171011 C128.377285,72.6171011 126.420936,74.5705898 126.420936,76.9800525 L126.420936,102.288137 C126.420936,104.6976 128.377285,106.651089 130.790712,106.651089 L130.790712,106.651089 Z M94.0845918,67.8169384 L121.614182,67.8169384 C124.027609,67.8169384 125.983958,65.8634497 125.983958,63.453987 L125.983958,50.363824 C125.983958,47.9534887 124.027609,46 121.614182,46 L94.0845918,46 C91.6711644,46 89.7148155,47.9534887 89.7148155,50.363824 L89.7148155,63.453987 C89.7148155,65.8634497 91.6711644,67.8169384 94.0845918,67.8169384 L94.0845918,67.8169384 Z" id="tipke" stroke="#CFCFCF" fill="#FFFFFF"></path>
                    </g>
                </g>
            </g>
        </g>
    </g>
</svg>